<?xml version="1.0" encoding="UTF-8"?>
<svg id="Layer_1" data-name="Layer 1" xmlns="http://www.w3.org/2000/svg" viewBox="0 0 841.89 595.28">
  <defs>
    <style>
      .cls-1, .cls-2 {
        fill: #f15722;
      }

      .cls-3 {
        fill: #394252;
      }

      .cls-2 {
        font-family: Poppins-SemiBold, Poppins;
        font-size: 82.43px;
      }
    </style>
  </defs>
  <g>
    <polygon class="cls-1" points="234.67 148.69 261.43 123.5 261.43 150.27 234.67 148.69"/>
    <polygon class="cls-1" points="272.45 117.21 297.63 117.21 355.88 180.18 329.12 210.09 270.87 210.09 270.87 117.21 272.45 117.21"/>
    <polyline class="cls-1" points="341.71 210.09 456.63 87.3 458.2 211.66 343.29 210.09"/>
    <polyline class="cls-1" points="467.65 81 469.34 81.02 590.44 82.57 469.22 202.21"/>
    <polyline class="cls-3" points="546.36 140.82 546.93 140.27 585.72 103.04 601.46 109.34"/>
    <polyline class="cls-3" points="280.32 219.53 282.83 219.55 456.63 221.11 407.83 354.91"/>
    <polygon class="cls-3" points="399.96 397.42 456.63 244.72 456.63 430.48 399.96 397.42"/>
  </g>
  <text class="cls-2" transform="translate(36.41 505.42)"><tspan x="0" y="0">YenyaSoft Pvt. Ltd.</tspan></text>
</svg>